<?xml version="1.0" encoding="UTF-8"?>
<svg id="Layer_1" data-name="Layer 1" xmlns="http://www.w3.org/2000/svg" viewBox="0 0 1023.32 624.29">
  <defs>
    <style>
      .cls-1 {
        fill: none;
        stroke: #eeb65e;
        stroke-miterlimit: 10;
        stroke-width: 7px;
      }
    </style>
  </defs>
  <path class="cls-1" d="M38.18,388.21c14.16-.42,26.73-2.25,36.81-12.22,1.72-1.7,3.24-3.62,4.26-5.81,1.57-3.37,1.87-7.18,2.14-10.9.59-7.97,1.71-23.56,1.76-25.7.07-3.55-.28,18.91-.31,27.49,0,2.13-.01,4.28.42,6.37,1.51,7.33,8.14,12.61,15.11,15.34,6.48,2.54,15.06,3.57,23.96,3.21.75-.03,0,0,0,0-6.96-.77-17.15,1.68-23.51,4.6-4.48,2.06-10.51,7.18-12.95,11.88-3.22,6.22-5.73,28.93-5.54,35.93.14,5.1-.08,2.74,0,0,1.7-12.02-.68-24.64-6.35-35.37-1.66-3.14-3.64-6.16-6.3-8.52-3.4-3.02-7.74-4.78-12.1-6.06-6.09-1.79-19.9-.17-17.4-.25Z"/>
  <path class="cls-1" d="M183.07,237.88c14.16-.42,26.73-2.25,36.81-12.22,1.72-1.7,3.24-3.62,4.26-5.81,1.57-3.37,1.87-7.18,2.14-10.9.59-7.97,1.71-23.56,1.76-25.7.07-3.55-.28,18.91-.31,27.49,0,2.13-.01,4.28.42,6.37,1.51,7.33,8.14,12.61,15.11,15.34,6.48,2.54,15.06,3.57,23.96,3.21.75-.03,0,0,0,0-6.96-.77-17.15,1.68-23.51,4.6-4.48,2.06-10.51,7.18-12.95,11.88-3.22,6.22-5.73,28.93-5.54,35.93.14,5.1-.08,2.74,0,0,1.7-12.02-.68-24.64-6.35-35.37-1.66-3.14-3.64-6.16-6.3-8.52-3.4-3.02-7.74-4.78-12.1-6.06-6.09-1.79-19.9-.17-17.4-.25Z"/>
  <path class="cls-1" d="M38.18,79.81c14.16-.42,26.73-2.25,36.81-12.22,1.72-1.7,3.24-3.62,4.26-5.81,1.57-3.37,1.87-7.18,2.14-10.9.59-7.97,1.71-23.56,1.76-25.7.07-3.55-.28,18.91-.31,27.49,0,2.13-.01,4.28.42,6.37,1.51,7.33,8.14,12.61,15.11,15.34,6.48,2.54,15.06,3.57,23.96,3.21.75-.03,0,0,0,0-6.96-.77-17.15,1.68-23.51,4.6-4.48,2.06-10.51,7.18-12.95,11.88-3.22,6.22-5.73,28.93-5.54,35.93.14,5.1-.08,2.74,0,0,1.7-12.02-.68-24.64-6.35-35.37-1.66-3.14-3.64-6.16-6.3-8.52-3.4-3.02-7.74-4.78-12.1-6.06-6.09-1.79-19.9-.17-17.4-.25Z"/>
  <path class="cls-1" d="M334.08,388.21c14.16-.42,26.73-2.25,36.81-12.22,1.72-1.7,3.24-3.62,4.26-5.81,1.57-3.37,1.87-7.18,2.14-10.9.59-7.97,1.71-23.56,1.76-25.7.07-3.55-.28,18.91-.31,27.49,0,2.13-.01,4.28.42,6.37,1.51,7.33,8.14,12.61,15.11,15.34,6.48,2.54,15.06,3.57,23.96,3.21.75-.03,0,0,0,0-6.96-.77-17.15,1.68-23.51,4.6-4.48,2.06-10.51,7.18-12.95,11.88-3.22,6.22-5.73,28.93-5.54,35.93.14,5.1-.08,2.74,0,0,1.7-12.02-.68-24.64-6.35-35.37-1.66-3.14-3.64-6.16-6.3-8.52-3.4-3.02-7.74-4.78-12.1-6.06-6.09-1.79-19.9-.17-17.4-.25Z"/>
  <path class="cls-1" d="M480.04,231.84c14.16-.42,26.73-2.25,36.81-12.22,1.72-1.7,3.24-3.62,4.26-5.81,1.57-3.37,1.87-7.18,2.14-10.9.59-7.97,1.71-23.56,1.76-25.7.07-3.55-.28,18.91-.31,27.49,0,2.13-.01,4.28.42,6.37,1.51,7.33,8.14,12.61,15.11,15.34,6.48,2.54,15.06,3.57,23.96,3.21.75-.03,0,0,0,0-6.96-.77-17.15,1.68-23.51,4.6-4.48,2.06-10.51,7.18-12.95,11.88-3.22,6.22-5.73,28.93-5.54,35.93.14,5.1-.08,2.74,0,0,1.7-12.02-.68-24.64-6.35-35.37-1.66-3.14-3.64-6.16-6.3-8.52-3.4-3.02-7.74-4.78-12.1-6.06-6.09-1.79-19.9-.17-17.4-.25Z"/>
  <path class="cls-1" d="M325.39,77.38c14.16-.42,26.73-2.25,36.81-12.22,1.72-1.7,3.24-3.62,4.26-5.81,1.57-3.37,1.87-7.18,2.14-10.9.59-7.97,1.71-23.56,1.76-25.7.07-3.55-.28,18.91-.31,27.49,0,2.13-.01,4.28.42,6.37,1.51,7.33,8.14,12.61,15.11,15.34,6.48,2.54,15.06,3.57,23.96,3.21.75-.03,0,0,0,0-6.96-.77-17.15,1.68-23.51,4.6-4.48,2.06-10.51,7.18-12.95,11.88-3.22,6.22-5.73,28.93-5.54,35.93.14,5.1-.08,2.74,0,0,1.7-12.02-.68-24.64-6.35-35.37-1.66-3.14-3.64-6.16-6.3-8.52-3.4-3.02-7.74-4.78-12.1-6.06-6.09-1.79-19.9-.17-17.4-.25Z"/>
  <path class="cls-1" d="M620.22,388.21c14.16-.42,26.73-2.25,36.81-12.22,1.72-1.7,3.24-3.62,4.26-5.81,1.57-3.37,1.87-7.18,2.14-10.9.59-7.97,1.71-23.56,1.76-25.7.07-3.55-.28,18.91-.31,27.49,0,2.13-.01,4.28.42,6.37,1.51,7.33,8.14,12.61,15.11,15.34,6.48,2.54,15.06,3.57,23.96,3.21.75-.03,0,0,0,0-6.96-.77-17.15,1.68-23.51,4.6-4.48,2.06-10.51,7.18-12.95,11.88-3.22,6.22-5.73,28.93-5.54,35.93.14,5.1-.08,2.74,0,0,1.7-12.02-.68-24.64-6.35-35.37-1.66-3.14-3.64-6.16-6.3-8.52-3.4-3.02-7.74-4.78-12.1-6.06-6.09-1.79-19.9-.17-17.4-.25Z"/>
  <path class="cls-1" d="M764.28,231.84c14.16-.42,26.73-2.25,36.81-12.22,1.72-1.7,3.24-3.62,4.26-5.81,1.57-3.37,1.87-7.18,2.14-10.9.59-7.97,1.71-23.56,1.76-25.7.07-3.55-.28,18.91-.31,27.49,0,2.13-.01,4.28.42,6.37,1.51,7.33,8.14,12.61,15.11,15.34,6.48,2.54,15.06,3.57,23.96,3.21.75-.03,0,0,0,0-6.96-.77-17.15,1.68-23.51,4.6-4.48,2.06-10.51,7.18-12.95,11.88-3.22,6.22-5.73,28.93-5.54,35.93.14,5.1-.08,2.74,0,0,1.7-12.02-.68-24.64-6.35-35.37-1.66-3.14-3.64-6.16-6.3-8.52-3.4-3.02-7.74-4.78-12.1-6.06-6.09-1.79-19.9-.17-17.4-.25Z"/>
  <path class="cls-1" d="M620.22,79.81c14.16-.42,26.73-2.25,36.81-12.22,1.72-1.7,3.24-3.62,4.26-5.81,1.57-3.37,1.87-7.18,2.14-10.9.59-7.97,1.71-23.56,1.76-25.7.07-3.55-.28,18.91-.31,27.49,0,2.13-.01,4.28.42,6.37,1.51,7.33,8.14,12.61,15.11,15.34,6.48,2.54,15.06,3.57,23.96,3.21.75-.03,0,0,0,0-6.96-.77-17.15,1.68-23.51,4.6-4.48,2.06-10.51,7.18-12.95,11.88-3.22,6.22-5.73,28.93-5.54,35.93.14,5.1-.08,2.74,0,0,1.7-12.02-.68-24.64-6.35-35.37-1.66-3.14-3.64-6.16-6.3-8.52-3.4-3.02-7.74-4.78-12.1-6.06-6.09-1.79-19.9-.17-17.4-.25Z"/>
  <path class="cls-1" d="M881.8,388.21c14.16-.42,26.73-2.25,36.81-12.22,1.72-1.7,3.24-3.62,4.26-5.81,1.57-3.37,1.87-7.18,2.14-10.9.59-7.97,1.71-23.56,1.76-25.7.07-3.55-.28,18.91-.31,27.49,0,2.13-.01,4.28.42,6.37,1.51,7.33,8.14,12.61,15.11,15.34,6.48,2.54,15.06,3.57,23.96,3.21.75-.03,0,0,0,0-6.96-.77-17.15,1.68-23.51,4.6-4.48,2.06-10.51,7.18-12.95,11.88-3.22,6.22-5.73,28.93-5.54,35.93.14,5.1-.08,2.74,0,0,1.7-12.02-.68-24.64-6.35-35.37-1.66-3.14-3.64-6.16-6.3-8.52-3.4-3.02-7.74-4.78-12.1-6.06-6.09-1.79-19.9-.17-17.4-.25Z"/>
  <path class="cls-1" d="M886.93,77.38c14.16-.42,26.73-2.25,36.81-12.22,1.72-1.7,3.24-3.62,4.26-5.81,1.57-3.37,1.87-7.18,2.14-10.9.59-7.97,1.71-23.56,1.76-25.7.07-3.55-.28,18.91-.31,27.49,0,2.13-.01,4.28.42,6.37,1.51,7.33,8.14,12.61,15.11,15.34,6.48,2.54,15.06,3.57,23.96,3.21.75-.03,0,0,0,0-6.96-.77-17.15,1.68-23.51,4.6-4.48,2.06-10.51,7.18-12.95,11.88-3.22,6.22-5.73,28.93-5.54,35.93.14,5.1-.08,2.74,0,0,1.7-12.02-.68-24.64-6.35-35.37-1.66-3.14-3.64-6.16-6.3-8.52-3.4-3.02-7.74-4.78-12.1-6.06-6.09-1.79-19.9-.17-17.4-.25Z"/>
  <path class="cls-1" d="M178.97,547.22c14.16-.42,26.73-2.25,36.81-12.22,1.72-1.7,3.24-3.62,4.26-5.81,1.57-3.37,1.87-7.18,2.14-10.9.59-7.97,1.71-23.56,1.76-25.7.07-3.55-.28,18.91-.31,27.49,0,2.13-.01,4.28.42,6.37,1.51,7.33,8.14,12.61,15.11,15.34,6.48,2.54,15.06,3.57,23.96,3.21.75-.03,0,0,0,0-6.96-.77-17.15,1.68-23.51,4.6-4.48,2.06-10.51,7.18-12.95,11.88-3.22,6.22-5.73,28.93-5.54,35.93.14,5.1-.08,2.74,0,0,1.7-12.02-.68-24.64-6.35-35.37-1.66-3.14-3.64-6.16-6.3-8.52-3.4-3.02-7.74-4.78-12.1-6.06-6.09-1.79-19.9-.17-17.4-.25Z"/>
  <path class="cls-1" d="M475.93,541.18c14.16-.42,26.73-2.25,36.81-12.22,1.72-1.7,3.24-3.62,4.26-5.81,1.57-3.37,1.87-7.18,2.14-10.9.59-7.97,1.71-23.56,1.76-25.7.07-3.55-.28,18.91-.31,27.49,0,2.13-.01,4.28.42,6.37,1.51,7.33,8.14,12.61,15.11,15.34,6.48,2.54,15.06,3.57,23.96,3.21.75-.03,0,0,0,0-6.96-.77-17.15,1.68-23.51,4.6-4.48,2.06-10.51,7.18-12.95,11.88-3.22,6.22-5.73,28.93-5.54,35.93.14,5.1-.08,2.74,0,0,1.7-12.02-.68-24.64-6.35-35.37-1.66-3.14-3.64-6.16-6.3-8.52-3.4-3.02-7.74-4.78-12.1-6.06-6.09-1.79-19.9-.17-17.4-.25Z"/>
  <path class="cls-1" d="M760.18,541.18c14.16-.42,26.73-2.25,36.81-12.22,1.72-1.7,3.24-3.62,4.26-5.81,1.57-3.37,1.87-7.18,2.14-10.9.59-7.97,1.71-23.56,1.76-25.7.07-3.55-.28,18.91-.31,27.49,0,2.13-.01,4.28.42,6.37,1.51,7.33,8.14,12.61,15.11,15.34,6.48,2.54,15.06,3.57,23.96,3.21.75-.03,0,0,0,0-6.96-.77-17.15,1.68-23.51,4.6-4.48,2.06-10.51,7.18-12.95,11.88-3.22,6.22-5.73,28.93-5.54,35.93.14,5.1-.08,2.74,0,0,1.7-12.02-.68-24.64-6.35-35.37-1.66-3.14-3.64-6.16-6.3-8.52-3.4-3.02-7.74-4.78-12.1-6.06-6.09-1.79-19.9-.17-17.4-.25Z"/>
</svg>