<?xml version="1.0" encoding="UTF-8"?>
<svg id="Layer_1" data-name="Layer 1" xmlns="http://www.w3.org/2000/svg" viewBox="0 0 1023.32 624.29">
  <defs>
    <style>
      .cls-1 {
        fill: none;
        stroke: #eeb65e;
        stroke-miterlimit: 10;
        stroke-width: 7px;
      }
    </style>
  </defs>
  <path class="cls-1" d="M34.94,487.43c19.68-.59,37.14-3.13,51.14-16.98,2.39-2.36,4.51-5.03,5.92-8.07,2.19-4.69,2.6-9.98,2.98-15.14.81-11.08,2.38-32.73,2.44-35.7.1-4.93-.39,26.27-.43,38.19,0,2.96-.02,5.95.58,8.85,2.1,10.19,11.3,17.52,20.99,21.32,9,3.52,20.93,4.96,33.29,4.46,1.04-.04,0,0,0,0-9.67-1.07-23.82,2.33-32.66,6.39-6.23,2.86-14.61,9.98-17.99,16.51-4.47,8.64-7.96,40.2-7.7,49.92.19,7.08-.11,3.8,0,0,2.37-16.69-.94-34.23-8.82-49.14-2.31-4.36-5.06-8.56-8.75-11.84-4.73-4.19-10.75-6.64-16.82-8.43-8.45-2.49-27.65-.24-24.18-.34Z"/>
  <path class="cls-1" d="M142.53,313.4c19.68-.59,37.14-3.13,51.14-16.98,2.39-2.36,4.51-5.03,5.92-8.07,2.19-4.69,2.6-9.98,2.98-15.14.81-11.08,2.38-32.73,2.44-35.7.1-4.93-.39,26.27-.43,38.19,0,2.96-.02,5.95.58,8.85,2.1,10.19,11.3,17.52,20.99,21.32,9,3.52,20.93,4.96,33.29,4.46,1.04-.04,0,0,0,0-9.67-1.07-23.82,2.33-32.66,6.39-6.23,2.86-14.61,9.98-17.99,16.51-4.47,8.64-7.96,40.2-7.7,49.92.19,7.08-.11,3.8,0,0,2.37-16.69-.94-34.23-8.82-49.14-2.31-4.36-5.06-8.56-8.75-11.84-4.73-4.19-10.75-6.64-16.82-8.43-8.45-2.49-27.65-.24-24.18-.34Z"/>
  <path class="cls-1" d="M39.6,102.17c19.68-.59,37.14-3.13,51.14-16.98,2.39-2.36,4.51-5.03,5.92-8.07,2.19-4.69,2.6-9.98,2.98-15.14.81-11.08,2.38-32.73,2.44-35.7.1-4.93-.39,26.27-.43,38.19,0,2.96-.02,5.95.58,8.85,2.1,10.19,11.3,17.52,20.99,21.32,9,3.52,20.93,4.96,33.29,4.46,1.04-.04,0,0,0,0-9.67-1.07-23.82,2.33-32.66,6.39-6.23,2.86-14.61,9.98-17.99,16.51-4.47,8.64-7.96,40.2-7.7,49.92.19,7.08-.11,3.8,0,0,2.37-16.69-.94-34.23-8.82-49.14-2.31-4.36-5.06-8.56-8.75-11.84-4.73-4.19-10.75-6.64-16.82-8.43-8.45-2.49-27.65-.24-24.18-.34Z"/>
  <path class="cls-1" d="M285.89,484.05c19.68-.59,37.14-3.13,51.14-16.98,2.39-2.36,4.51-5.03,5.92-8.07,2.19-4.69,2.6-9.98,2.98-15.14.81-11.08,2.38-32.73,2.44-35.7.1-4.93-.39,26.27-.43,38.19,0,2.96-.02,5.95.58,8.85,2.1,10.19,11.3,17.52,20.99,21.32,9,3.52,20.93,4.96,33.29,4.46,1.04-.04,0,0,0,0-9.67-1.07-23.82,2.33-32.66,6.39-6.23,2.86-14.61,9.98-17.99,16.51-4.47,8.64-7.96,40.2-7.7,49.92.19,7.08-.11,3.8,0,0,2.37-16.69-.94-34.23-8.82-49.14-2.31-4.36-5.06-8.56-8.75-11.84-4.73-4.19-10.75-6.64-16.82-8.43-8.45-2.49-27.65-.24-24.18-.34Z"/>
  <path class="cls-1" d="M438.64,310.02c19.68-.59,37.14-3.13,51.14-16.98,2.39-2.36,4.51-5.03,5.92-8.07,2.19-4.69,2.6-9.98,2.98-15.14.81-11.08,2.38-32.73,2.44-35.7.1-4.93-.39,26.27-.43,38.19,0,2.96-.02,5.95.58,8.85,2.1,10.19,11.3,17.52,20.99,21.32,9,3.52,20.93,4.96,33.29,4.46,1.04-.04,0,0,0,0-9.67-1.07-23.82,2.33-32.66,6.39-6.23,2.86-14.61,9.98-17.99,16.51-4.47,8.64-7.96,40.2-7.7,49.92.19,7.08-.11,3.8,0,0,2.37-16.69-.94-34.23-8.82-49.14-2.31-4.36-5.06-8.56-8.75-11.84-4.73-4.19-10.75-6.64-16.82-8.43-8.45-2.49-27.65-.24-24.18-.34Z"/>
  <path class="cls-1" d="M290.54,98.79c19.68-.59,37.14-3.13,51.14-16.98,2.39-2.36,4.51-5.03,5.92-8.07,2.19-4.69,2.6-9.98,2.98-15.14.81-11.08,2.38-32.73,2.44-35.7.1-4.93-.39,26.27-.43,38.19,0,2.96-.02,5.95.58,8.85,2.1,10.19,11.3,17.52,20.99,21.32,9,3.52,20.93,4.96,33.29,4.46,1.04-.04,0,0,0,0-9.67-1.07-23.82,2.33-32.66,6.39-6.23,2.86-14.61,9.98-17.99,16.51-4.47,8.64-7.96,40.2-7.7,49.92.19,7.08-.11,3.8,0,0,2.37-16.69-.94-34.23-8.82-49.14-2.31-4.36-5.06-8.56-8.75-11.84-4.73-4.19-10.75-6.64-16.82-8.43-8.45-2.49-27.65-.24-24.18-.34Z"/>
  <path class="cls-1" d="M556.43,487.43c19.68-.59,37.14-3.13,51.14-16.98,2.39-2.36,4.51-5.03,5.92-8.07,2.19-4.69,2.6-9.98,2.98-15.14.81-11.08,2.38-32.73,2.44-35.7.1-4.93-.39,26.27-.43,38.19,0,2.96-.02,5.95.58,8.85,2.1,10.19,11.3,17.52,20.99,21.32,9,3.52,20.93,4.96,33.29,4.46,1.04-.04,0,0,0,0-9.67-1.07-23.82,2.33-32.66,6.39-6.23,2.86-14.61,9.98-17.99,16.51-4.47,8.64-7.96,40.2-7.7,49.92.19,7.08-.11,3.8,0,0,2.37-16.69-.94-34.23-8.82-49.14-2.31-4.36-5.06-8.56-8.75-11.84-4.73-4.19-10.75-6.64-16.82-8.43-8.45-2.49-27.65-.24-24.18-.34Z"/>
  <path class="cls-1" d="M709.19,313.4c19.68-.59,37.14-3.13,51.14-16.98,2.39-2.36,4.51-5.03,5.92-8.07,2.19-4.69,2.6-9.98,2.98-15.14.81-11.08,2.38-32.73,2.44-35.7.1-4.93-.39,26.27-.43,38.19,0,2.96-.02,5.95.58,8.85,2.1,10.19,11.3,17.52,20.99,21.32,9,3.52,20.93,4.96,33.29,4.46,1.04-.04,0,0,0,0-9.67-1.07-23.82,2.33-32.66,6.39-6.23,2.86-14.61,9.98-17.99,16.51-4.47,8.64-7.96,40.2-7.7,49.92.19,7.08-.11,3.8,0,0,2.37-16.69-.94-34.23-8.82-49.14-2.31-4.36-5.06-8.56-8.75-11.84-4.73-4.19-10.75-6.64-16.82-8.43-8.45-2.49-27.65-.24-24.18-.34Z"/>
  <path class="cls-1" d="M561.09,102.17c19.68-.59,37.14-3.13,51.14-16.98,2.39-2.36,4.51-5.03,5.92-8.07,2.19-4.69,2.6-9.98,2.98-15.14.81-11.08,2.38-32.73,2.44-35.7.1-4.93-.39,26.27-.43,38.19,0,2.96-.02,5.95.58,8.85,2.1,10.19,11.3,17.52,20.99,21.32,9,3.52,20.93,4.96,33.29,4.46,1.04-.04,0,0,0,0-9.67-1.07-23.82,2.33-32.66,6.39-6.23,2.86-14.61,9.98-17.99,16.51-4.47,8.64-7.96,40.2-7.7,49.92.19,7.08-.11,3.8,0,0,2.37-16.69-.94-34.23-8.82-49.14-2.31-4.36-5.06-8.56-8.75-11.84-4.73-4.19-10.75-6.64-16.82-8.43-8.45-2.49-27.65-.24-24.18-.34Z"/>
  <path class="cls-1" d="M864.08,487.43c19.68-.59,37.14-3.13,51.14-16.98,2.39-2.36,4.51-5.03,5.92-8.07,2.19-4.69,2.6-9.98,2.98-15.14.81-11.08,2.38-32.73,2.44-35.7.1-4.93-.39,26.27-.43,38.19,0,2.96-.02,5.95.58,8.85,2.1,10.19,11.3,17.52,20.99,21.32,9,3.52,20.93,4.96,33.29,4.46,1.04-.04,0,0,0,0-9.67-1.07-23.82,2.33-32.66,6.39-6.23,2.86-14.61,9.98-17.99,16.51-4.47,8.64-7.96,40.2-7.7,49.92.19,7.08-.11,3.8,0,0,2.37-16.69-.94-34.23-8.82-49.14-2.31-4.36-5.06-8.56-8.75-11.84-4.73-4.19-10.75-6.64-16.82-8.43-8.45-2.49-27.65-.24-24.18-.34Z"/>
  <path class="cls-1" d="M868.73,102.17c19.68-.59,37.14-3.13,51.14-16.98,2.39-2.36,4.51-5.03,5.92-8.07,2.19-4.69,2.6-9.98,2.98-15.14.81-11.08,2.38-32.73,2.44-35.7.1-4.93-.39,26.27-.43,38.19,0,2.96-.02,5.95.58,8.85,2.1,10.19,11.3,17.52,20.99,21.32,9,3.52,20.93,4.96,33.29,4.46,1.04-.04,0,0,0,0-9.67-1.07-23.82,2.33-32.66,6.39-6.23,2.86-14.61,9.98-17.99,16.51-4.47,8.64-7.96,40.2-7.7,49.92.19,7.08-.11,3.8,0,0,2.37-16.69-.94-34.23-8.82-49.14-2.31-4.36-5.06-8.56-8.75-11.84-4.73-4.19-10.75-6.64-16.82-8.43-8.45-2.49-27.65-.24-24.18-.34Z"/>
</svg>