<?xml version="1.0" encoding="UTF-8"?>
<svg id="Layer_1" data-name="Layer 1" xmlns="http://www.w3.org/2000/svg" xmlns:xlink="http://www.w3.org/1999/xlink" viewBox="0 0 216.69 322.95">
  <defs>
    <style>
      .cls-1 {
        stroke: #487ab5;
        stroke-miterlimit: 10;
        stroke-width: .5px;
      }

      .cls-1, .cls-2 {
        fill: #487ab5;
      }

      .cls-3 {
        fill: #fff;
      }

      .cls-4 {
        letter-spacing: 0em;
      }

      .cls-5 {
        letter-spacing: -.01em;
      }

      .cls-6 {
        letter-spacing: 0em;
      }

      .cls-7 {
        letter-spacing: 0em;
      }

      .cls-8 {
        letter-spacing: 0em;
      }

      .cls-9 {
        letter-spacing: .02em;
      }

      .cls-10 {
        fill: #221f20;
        font-family: MyriadPro-Regular, 'Myriad Pro';
        font-size: 10.4px;
      }

      .cls-11 {
        letter-spacing: 0em;
      }
    </style>
  </defs>
  <g>
    <g>
      <path class="cls-3" d="M197.83,200.42c.1-.43.15-.86.15-1.3v-76.34c.01-.87-.12-1.74-.37-2.57l-.84-2.78-5.9-66.61-.74-4c-3.73-26.51-26.18-37.23-51.13-34.94l-5.77.1-63.25,4.09-7.03,1.87c-17.51,1.5-29.87,2.84-34.26,22.24-2.63,11.62-1.41,20.96-1.53,32.03l-1.41,20.07-1.18,82.77.47,2.67,4.58,98.48,2.29,8.72c2.59,7.11,14.84,16.79,21.95,19.49,13.02,4.92,30.82,2.79,44.82,4.23l2.16-.05h70.59c3.21,0,8.91-.62,12.87-4.74l2.86-2.56c.24.3,3.59-2.84,4.41-3.65,12.69-12.39,5.94-47.03,5.06-63.48-.42-7.81,1.12-18.75.28-26.47-.15-1.34-.14-2.69.17-4.01l.75-3.27Z"/>
      <path class="cls-2" d="M194.98,301.19c-1.27,1.24-12.06,7.92-13.94,8.73-13.3,5.76-56.58,3.91-73.1,3.42-17.93-.53-49.97-.5-64.46-9.38-18.55-11.37-18.61-25.68-20.32-45.74-4.31-50.71-2.43-102.07-1.24-152.77.5-21.47-5.44-73.86,14.29-86.73,15.65-10.21,54.07-8.78,73.12-9.77,12.48-.65,24.91-3.27,37.49-2.63,14.34.73,27.65,3.58,36.9,14.91,10.98,13.45,13.02,29.66,14.33,46.55,4.84,62.5,2.96,118.95,3.77,181.45.2,15.46,5.99,39.45-6.85,51.96ZM197.85,199.93c.1-.43.15-.86.15-1.3v-76.34c.01-.87-.12-1.74-.37-2.57l-.84-2.78-5.9-66.61-.74-4c-3.73-26.51-26.18-37.23-51.13-34.94l-5.77.1-63.25,4.09-7.03,1.87c-17.51,1.5-29.87,2.84-34.26,22.24-2.63,11.62-1.41,20.96-1.53,32.03l-1.41,20.07-1.18,82.77.47,2.67,4.58,98.48,2.29,8.72c2.59,7.11,14.84,16.79,21.95,19.49,13.02,4.92,30.82,2.79,44.82,4.23l2.16-.05h70.59c3.21,0,8.91-.62,12.87-4.74l2.86-2.56c.24.3,3.59-2.84,4.41-3.65,12.69-12.39,5.94-47.03,5.06-63.48-.42-7.81,1.12-18.75.28-26.47-.15-1.34-.14-2.69.17-4.01l.75-3.27Z"/>
    </g>
    <g>
      <path class="cls-2" d="M177.42,256.68c.44-.24.2-3.96,5.91-2.03,7.63,2.57-5.29,13.06-7.58,15.31-3.3-4.91-10.78-3.96-9.74-10.9,1.32-8.88,8.9-1.02,11.4-2.38Z"/>
      <path class="cls-2" d="M172.77,258.4c.25-2.15-.88-5.45-2.41-6.72-.51-.43-2.27.07-2.07-2.01,1.75-1.33,3.55-.39,5.58-.54,1.23-.1,7.89-1.62,8.01.25,0,.07-.41,1.03-.53,1.23-1.13,1.74-3.68,2.74-3.17,6.24"/>
      <path class="cls-2" d="M174.64,261.27c1.76-2.98,1.09-7.28,2.78-10.5h-4.68c.62,2,1.5,3.29,1.49,5.8"/>
    </g>
    <g>
      <path class="cls-2" d="M51.11,71.05c.44.24.2,3.96,5.91,2.03,7.63-2.57-5.29-13.06-7.58-15.31-3.3,4.91-10.78,3.96-9.74,10.9,1.32,8.88,8.9,1.02,11.4,2.38Z"/>
      <path class="cls-2" d="M51.88,70.88c-.51,3.5,2.04,4.5,3.17,6.24.13.19.54,1.15.53,1.23-.12,1.87-6.79.35-8.01.25-2.03-.16-3.84.79-5.58-.54-.21-2.08,1.56-1.58,2.07-2.01,1.53-1.28,2.66-4.57,2.41-6.72"/>
      <path class="cls-2" d="M47.92,71.16c0,2.52-.87,3.8-1.49,5.8h4.68c-1.69-3.21-1.02-7.52-2.78-10.5"/>
    </g>
    <text class="cls-10" transform="translate(95 211.16)"><tspan x="0" y="0">BI</tspan><tspan class="cls-4" x="8.12" y="0">R</tspan><tspan x="13.74" y="0">GER</tspan><tspan x="-36.82" y="24.95">Han t</tspan><tspan class="cls-9" x="-13.62" y="24.95">r</tspan><tspan x="-9.96" y="24.95">yller opt</tspan><tspan class="cls-7" x="25.72" y="24.95">r</tspan><tspan x="29.07" y="24.95">æder </tspan><tspan class="cls-5" x="53.78" y="24.95">f</tspan><tspan x="56.68" y="24.95">or </tspan><tspan x="-37.96" y="37.42">både s</tspan><tspan class="cls-6" x="-9.64" y="37.42">t</tspan><tspan x="-6.26" y="37.42">o</tspan><tspan class="cls-8" x="-.55" y="37.42">r</tspan><tspan x="2.74" y="37.42">e og små bø</tspan><tspan class="cls-11" x="55.5" y="37.42">r</tspan><tspan x="58.94" y="37.42" xml:space="preserve">n  </tspan></text>
    <path class="cls-1" d="M45.94,50.93c.45.3,1.21.03,1.75,0,1.05-.05,3.39.03,4.55,0,.36-.01.95,0,1.21-.01.47-.04.63-.45.97-.47,1.44-.1,2.1,1.96.82,2.83-.47.32-.71.14-1.05.13-2.46-.08-5.97.03-8.47.1-.23,0-.48.03-.72.02s-1.46-.35-1.59-.52c-.53-.68-.26-.95-.24-1.55.07-1.5.37-1.29.75-2.47.69-2.17,3.46-4.85,5.17-6.89,1.35-1.61,4.29-6.69,3.68-8.74-.3-1.01-2.64-.87-3.18-.34-.32.31-.83.58-.96.84-.09.19-.29.46-.38.73-.14.42-.07.59,0,.98.04.17.14.37.19.56.07.3.2.66.19.87-.03.55-.22.83-.72,1.05-.19.02-.86-.02-1.01-.09-.24-.11-.47-.19-.64-.36-.56-.55-.29-1.57-.29-2.29,0-1.11.92-2.19,1.34-3.31.06-.17.64-1.1.69-1.14.13-.08.42-.29.63-.37.81-.27.39-.14,1.02-.3.19-.05.9.01,1.01-.02.35-.08,2.97.59,3.33.93.78.73,1.08,2.66,1.08,3.7,0,1.1-.38,2.34-.5,3.3-.47,3.81-7.69,7.93-8.66,11.69-.1.37-.41.85,0,1.12Z"/>
    <path class="cls-1" d="M179.38,275.43c-.45-.3-1.21-.03-1.75,0-1.05.05-3.39-.03-4.55,0-.36.01-.95,0-1.21.01-.47.04-.63.45-.97.47-1.44.1-2.1-1.96-.82-2.83.47-.32.71-.14,1.05-.13,2.46.08,5.97-.03,8.47-.1.23,0,.48-.03.72-.02s1.46.35,1.59.52c.53.68.26.95.24,1.55-.07,1.5-.37,1.29-.75,2.47-.69,2.17-3.46,4.85-5.17,6.89-1.35,1.61-4.29,6.69-3.68,8.74.3,1.01,2.64.87,3.18.34.32-.31.83-.58.96-.84.09-.19.29-.46.38-.73.14-.42.07-.59,0-.98-.04-.17-.14-.37-.19-.56-.07-.3-.2-.66-.19-.87.03-.55.22-.83.72-1.05.19-.02.86.02,1.01.09.24.11.47.19.64.36.56.55.29,1.57.29,2.29,0,1.11-.92,2.19-1.34,3.31-.06.17-.64,1.1-.69,1.14-.13.08-.42.29-.63.37-.81.27-.39.14-1.02.3-.19.05-.9-.01-1.01.02-.35.08-2.97-.59-3.33-.93-.78-.73-1.08-2.66-1.08-3.7,0-1.1.38-2.34.5-3.3.47-3.81,7.69-7.93,8.66-11.69.1-.37.41-.85,0-1.12Z"/>
  </g>
  <image width="1024" height="1024" transform="translate(48.79 62.46) scale(.13)" xlink:href="../birger.webp"/>
</svg>