<?xml version="1.0" encoding="UTF-8"?>
<svg id="Layer_1" data-name="Layer 1" xmlns="http://www.w3.org/2000/svg" viewBox="0 0 24.6 26.24">
  <defs>
    <style>
      .cls-1 {
        fill: #357cba;
        stroke: #357cba;
        stroke-miterlimit: 10;
        stroke-width: 2px;
      }

      .cls-2 {
        fill: #f9faf3;
      }
    </style>
  </defs>
  <path class="cls-1" d="M1.06,14.01l.59,7.71.3.68c.33.56,1.92,1.31,2.84,1.53,1.68.39,3.99.22,5.8.33h.28s9.13,0,9.13,0c.41,0,1.15-.05,1.66-.37l.37-.2s.46-.22.57-.29c1.64-.97.77-3.68.66-4.97-.05-.61.14-1.47.04-2.07-.02-.1-.02-.21.02-.31l.1-.26s.02-.07.02-.1v-5.98c0-.07-.02-.14-.05-.2l-.11-.22-.76-5.21-.1-.31c-.48-2.08-3.39-2.91-6.62-2.74h-.75s-8.18.33-8.18.33l-.91.15c-2.27.12-3.87.22-4.43,1.74-.34.91-.18,1.64-.2,2.51l-.18,1.57-.15,6.48.06.21"/>
  <path class="cls-2" d="M17.79,8.25c.54.12.79-1.68.56-2.26s-2.43-.91-2.83-.9c-1.66.03-2.08.17-3.21,1.48-1.18,1.36-.79,3.51-.85,5.29-.44.05-1.55.04-2.07-.02-.62-.07-.58.65-.9,1.37-.28.63.19,1.86.53,1.85.86-.03,1.64.11,2.5.11-.03,4.07.19,6.74.28,10.81.01.62,2.92.12,2.9-.82-.08-3.48.22-5.68.14-9.16,0-.28.04-.64.03-.93,1.1.1,1.4-.29,2.47.03.59.18.59-1.47.58-1.66-.05-.94.19-1.73-.24-1.73-1.31.02-1.2.15-2.86.1,0-.92-.27-1-.22-1.48.08-.73-.17-1.46.43-1.87s1.29-.52,2.77-.19Z"/>
</svg>