<?xml version="1.0" encoding="UTF-8"?>
<svg id="Layer_1" data-name="Layer 1" xmlns="http://www.w3.org/2000/svg" xmlns:xlink="http://www.w3.org/1999/xlink" viewBox="0 0 216.69 322.95">
  <defs>
    <style>
      .cls-1 {
        stroke: #487ab5;
        stroke-miterlimit: 10;
        stroke-width: .5px;
      }

      .cls-1, .cls-2 {
        fill: #487ab5;
      }

      .cls-3 {
        fill: #fff;
      }

      .cls-4 {
        letter-spacing: 0em;
      }

      .cls-5 {
        letter-spacing: -.08em;
      }

      .cls-6 {
        letter-spacing: -.02em;
      }

      .cls-7 {
        letter-spacing: 0em;
      }

      .cls-8 {
        letter-spacing: 0em;
      }

      .cls-9 {
        letter-spacing: 0em;
      }

      .cls-10 {
        fill: #221f20;
        font-family: MyriadPro-Regular, 'Myriad Pro';
        font-size: 10.44px;
      }

      .cls-11 {
        letter-spacing: .01em;
      }

      .cls-12 {
        letter-spacing: .03em;
      }

      .cls-13 {
        letter-spacing: 0em;
      }
    </style>
  </defs>
  <g>
    <path class="cls-3" d="M193.32,198.85c.1-.43.15-.87.15-1.31v-76.69c.01-.87-.12-1.74-.37-2.58l-.85-2.79-5.93-66.91-.74-4.02c-3.74-26.63-26.3-37.4-51.36-35.1l-5.8.1-63.54,4.11-7.06,1.88c-17.59,1.51-30,2.85-34.41,22.34-2.64,11.68-1.41,21.05-1.54,32.17l-1.41,20.16-1.18,83.14.47,2.69,4.6,98.93,2.3,8.76c2.6,7.15,14.91,16.87,22.05,19.57,13.08,4.95,30.96,2.8,45.02,4.25l2.17-.05h70.91c3.22,0,8.95-.62,12.92-4.77l2.87-2.57c.24.3,3.61-2.86,4.43-3.66,12.74-12.45,5.97-47.24,5.09-63.76-.42-7.84,1.12-18.84.28-26.59-.15-1.35-.14-2.71.17-4.03l.75-3.28Z"/>
    <path class="cls-2" d="M190.45,300.07c-1.28,1.25-12.12,7.95-14,8.77-13.36,5.79-56.83,3.93-73.43,3.44-18.01-.53-50.19-.5-64.75-9.42-18.64-11.42-18.69-25.79-20.41-45.95-4.33-50.93-2.45-102.53-1.25-153.45.51-21.57-5.46-74.19,14.36-87.12,15.72-10.25,54.31-8.82,73.45-9.82,12.54-.65,25.02-3.29,37.66-2.64,14.4.73,27.78,3.6,37.06,14.98,11.03,13.51,13.08,29.79,14.39,46.76,4.87,62.78,2.97,119.48,3.79,182.27.2,15.53,6.01,39.63-6.88,52.2ZM193.34,198.36c.1-.43.15-.87.15-1.31v-76.69c.01-.87-.12-1.74-.37-2.58l-.85-2.79-5.93-66.91-.74-4.02c-3.74-26.63-26.3-37.4-51.36-35.1l-5.8.1-63.54,4.11-7.06,1.88c-17.59,1.51-30,2.85-34.41,22.34-2.64,11.68-1.41,21.05-1.54,32.17l-1.41,20.16-1.18,83.14.47,2.69,4.6,98.93,2.3,8.76c2.6,7.15,14.91,16.87,22.05,19.57,13.08,4.95,30.96,2.8,45.02,4.25l2.17-.05h70.91c3.22,0,8.95-.62,12.92-4.77l2.87-2.57c.24.3,3.61-2.86,4.43-3.66,12.74-12.45,5.97-47.24,5.09-63.76-.42-7.84,1.12-18.84.28-26.59-.15-1.35-.14-2.71.17-4.03l.75-3.28Z"/>
  </g>
  <path class="cls-2" d="M49.55,61.68c3.78,1.41,5.6,3.21,4.08,7.39-1.44,3.99-4.2,6.31-8.22,3.76.76,2.24,1.89,5.13,4.66,5.21-.1.3-.06.9-.2,1.05-.48.53-12.43.12-14.24.54-1.61-.79,2.14-2.67,2.87-3.42.5-.52,2.53-3.27,2.18-3.81-2.03.4-3.25.63-5.08-.65-3.72-2.63-1.28-9.59,3.3-8.51-2.43-9.53,11.57-11.26,10.64-1.56Z"/>
  <path class="cls-2" d="M167.9,259.28c-4.58,1.08-7.02-5.88-3.3-8.51,1.82-1.29,3.05-1.06,5.08-.65.35-.54-1.68-3.3-2.18-3.81-.73-.75-4.48-2.63-2.87-3.42,1.81.42,13.76.01,14.24.54.14.15.09.75.2,1.05-2.77.09-3.9,2.97-4.66,5.21,4.02-2.54,6.77-.22,8.22,3.76,1.51,4.18-.3,5.98-4.08,7.39.93,9.7-13.07,7.97-10.64-1.56Z"/>
  <text class="cls-10" transform="translate(64.21 209.83)"><tspan class="cls-5" x="0" y="0">F</tspan><tspan x="4.27" y="0">ABEL</tspan><tspan class="cls-6" x="26.39" y="0">A</tspan><tspan x="32.62" y="0">GTIGE </tspan><tspan class="cls-5" x="61.15" y="0">F</tspan><tspan x="65.42" y="0">ALBE</tspan><tspan x="-21.32" y="25.06">En ma</tspan><tspan class="cls-7" x="5.57" y="25.06">g</tspan><tspan x="11.35" y="25.06">iker med </tspan><tspan class="cls-7" x="51.59" y="25.06">g</tspan><tspan class="cls-13" x="57.37" y="25.06">r</tspan><tspan x="60.82" y="25.06">in</tspan><tspan class="cls-12" x="69.06" y="25.06">e</tspan><tspan class="cls-11" x="74.58" y="25.06">-</tspan><tspan class="cls-4" x="77.94" y="25.06">ga</tspan><tspan class="cls-8" x="88.81" y="25.06">r</tspan><tspan x="92.17" y="25.06">a</tspan><tspan class="cls-9" x="97.2" y="25.06">n</tspan><tspan class="cls-4" x="102.96" y="25.06">ti</tspan></text>
  <path class="cls-1" d="M38.67,28.35c.56-.42,1.93-.66,2.26-.66,3.18-.03,4.1-.44,7.07.06,1.09.18,1.7.79,2.13,1.87.55,1.38-.32,4.49-.82,5.92-1.5,4.32-2.6,9.01-3.78,13.43-.41,1.55-.07,1.17-.84,2.4-.26.42-.73.86-1.62.3-1.3-.81.5-3.26.86-4.15.59-1.46,1.08-3.84,1.41-5.41.22-1.02.45-1.18.52-2.12,0-.13.14-.63.21-.85.26-.79.37-2.02.66-2.9.24-.75.71-1.5.92-2.19.09-.29.5-2.44.48-2.57,0-.05-.28-.91-.3-.95-.02-.04-.51-.54-.55-.56-.46-.23-1.56-.22-2.14-.17-1.58.12-2.43.33-4.02.35-.31,0-1.28.24-1.62.27-.6.05-1.03-.18-1.3-.69,0,0-.37-.74.46-1.36Z"/>
  <path class="cls-1" d="M178.51,294.86c-.56.42-1.93.66-2.26.66-3.18.03-4.1.44-7.07-.06-1.09-.18-1.7-.79-2.13-1.87-.55-1.38.32-4.49.82-5.92,1.5-4.32,2.6-9.01,3.78-13.43.41-1.55.07-1.17.84-2.4.26-.42.73-.86,1.62-.3,1.3.81-.5,3.26-.86,4.15-.59,1.46-1.08,3.84-1.41,5.41-.22,1.02-.45,1.18-.52,2.12,0,.13-.14.63-.21.85-.26.79-.37,2.02-.66,2.9-.24.75-.71,1.5-.92,2.19-.09.29-.5,2.44-.48,2.57,0,.05.28.91.3.95.02.04.51.54.55.56.46.23,1.56.22,2.14.17,1.58-.12,2.43-.33,4.02-.35.31,0,1.28-.24,1.62-.27.6-.05,1.03.18,1.3.69,0,0,.37.74-.46,1.36Z"/>
  <image width="2048" height="2048" transform="translate(42.43 69.56) scale(.06)" xlink:href="../falbe.webp"/>
</svg>