<?xml version="1.0" encoding="UTF-8"?>
<svg id="Layer_1" data-name="Layer 1" xmlns="http://www.w3.org/2000/svg" xmlns:xlink="http://www.w3.org/1999/xlink" viewBox="0 0 216.69 322.95">
  <defs>
    <style>
      .cls-1 {
        stroke: #d2696f;
        stroke-miterlimit: 10;
        stroke-width: .5px;
      }

      .cls-1, .cls-2 {
        fill: #d2696f;
      }

      .cls-3 {
        fill: #fff;
      }

      .cls-4 {
        fill: #231f20;
        font-family: MyriadPro-Regular, 'Myriad Pro';
        font-size: 10.38px;
      }

      .cls-5 {
        letter-spacing: 0em;
      }

      .cls-6 {
        letter-spacing: 0em;
      }

      .cls-7 {
        letter-spacing: 0em;
      }

      .cls-8 {
        letter-spacing: .02em;
      }

      .cls-9 {
        letter-spacing: 0em;
      }
    </style>
  </defs>
  <g>
    <g>
      <g>
        <path class="cls-3" d="M189.68,199.12c.1-.43.15-.86.15-1.3v-76.25c.01-.87-.12-1.73-.37-2.56l-.84-2.77-5.89-66.53-.74-4c-3.72-26.48-26.15-37.18-51.07-34.9l-5.76.1-63.18,4.08-7.02,1.87c-17.49,1.5-29.83,2.83-34.22,22.21-2.63,11.61-1.41,20.93-1.53,31.99l-1.41,20.05-1.17,82.67.47,2.67,4.58,98.37,2.29,8.71c2.59,7.11,14.82,16.77,21.93,19.46,13,4.92,30.78,2.78,44.76,4.23l2.16-.05h70.5c3.2,0,8.9-.62,12.85-4.74l2.86-2.56c.24.3,3.59-2.84,4.41-3.64,12.67-12.38,5.93-46.98,5.06-63.4-.42-7.8,1.12-18.73.28-26.44-.15-1.34-.14-2.69.17-4l.75-3.26Z"/>
        <path class="cls-2" d="M186.83,299.76c-1.27,1.24-12.05,7.91-13.92,8.72-13.28,5.75-56.51,3.91-73.02,3.42-17.9-.53-49.91-.5-64.38-9.37-18.53-11.36-18.59-25.64-20.29-45.69-4.3-50.65-2.43-101.95-1.24-152.58.5-21.45-5.43-73.77,14.28-86.63,15.63-10.2,54-8.77,73.03-9.76,12.47-.65,24.88-3.27,37.45-2.63,14.32.73,27.62,3.58,36.85,14.89,10.97,13.44,13,29.62,14.31,46.49,4.84,62.43,2.95,118.81,3.77,181.24.2,15.44,5.98,39.41-6.84,51.9ZM189.69,198.63c.1-.43.15-.86.15-1.3v-76.25c.01-.87-.12-1.73-.37-2.56l-.84-2.77-5.89-66.53-.74-4c-3.72-26.48-26.15-37.18-51.07-34.9l-5.76.1-63.18,4.08-7.02,1.87c-17.49,1.5-29.83,2.83-34.22,22.21-2.63,11.61-1.41,20.93-1.53,31.99l-1.41,20.05-1.17,82.67.47,2.67,4.58,98.37,2.29,8.71c2.59,7.11,14.82,16.77,21.93,19.46,13,4.92,30.78,2.78,44.76,4.23l2.16-.05h70.5c3.2,0,8.9-.62,12.85-4.74l2.86-2.56c.24.3,3.59-2.84,4.41-3.64,12.67-12.38,5.93-46.98,5.06-63.4-.42-7.8,1.12-18.73.28-26.44-.15-1.34-.14-2.69.17-4l.75-3.26Z"/>
      </g>
      <text class="cls-4" transform="translate(92.03 215.63)"><tspan x="0" y="0">HELLE</tspan><tspan x="-48.12" y="24.92">Danma</tspan><tspan class="cls-9" x="-16.77" y="24.92">r</tspan><tspan x="-13.34" y="24.92">ksmes</tspan><tspan class="cls-6" x="13.62" y="24.92">t</tspan><tspan x="16.99" y="24.92">er i bø</tspan><tspan class="cls-9" x="44.03" y="24.92">r</tspan><tspan class="cls-5" x="47.47" y="24.92">net</tspan><tspan class="cls-8" x="61.87" y="24.92">r</tspan><tspan x="65.52" y="24.92">y</tspan><tspan class="cls-7" x="70.41" y="24.92">l</tspan><tspan x="72.76" y="24.92">.</tspan></text>
    </g>
    <path class="cls-2" d="M177.97,253.28c-.07.1-1.59.37-2.28.83-2.87,1.94-4.52,5.83-5.39,9.08-.4,1.5.45,3.65-1.84,3.33.28-3.23-1.3-9.61-3.56-11.95-1-1.04-3.5-1.28-1.56-2.88.62-.51,1.78-.79,2.49-1.44,1.58-1.46,3.2-4.99,3.41-7.14.1-.99-.61-3.7.25-3.88,1.84-.38,1.46,2.5,1.55,2.99.6,3.1,1.06,5.84,3.65,7.93.84.68,4.1,1.92,3.27,3.13Z"/>
    <path class="cls-2" d="M49.13,71.44c-.07.1-1.59.37-2.28.83-2.87,1.94-4.52,5.83-5.39,9.08-.4,1.5.45,3.65-1.84,3.33.28-3.23-1.3-9.61-3.56-11.95-1-1.04-3.5-1.28-1.56-2.88.62-.51,1.78-.79,2.49-1.44,1.58-1.46,3.2-4.99,3.41-7.14.1-.99-.61-3.7.25-3.88,1.84-.38,1.46,2.5,1.55,2.99.6,3.1,1.06,5.84,3.65,7.93.84.68,4.1,1.92,3.27,3.13Z"/>
    <path class="cls-1" d="M44.55,27.95h0s.51.25.53.6c.06.92-.18,1.33-.18,1.33-.06.12-1.16.41-1.27.44-.53.13-.73.14-1.43.02h0c-1.58.21-3.37-.34-4.88.32l.57,6.44.21.23c.35.02.69-.21,1.02-.24,2.75-.23,4.31.82,6.39,2.44,1.67,1.31,2.59,2.36,2.62,4.6.04,3.36-2.04,5.51-4.97,6.83-2.6,1.17-4.47-.01-6.53-1.43-.35-.24-.67-.7-.96-.89-.43-.28-.74-.59-.55-1.43.1-.45.42-.8.87-.75,1.48.14.94.98,2.05,1.8.35.26,1.82,1.04,2.22,1.07,1.53.15,4.25-1.33,5.06-2.64.08-.14.5-1.25.54-1.45.12-.57.07-1.32-.07-1.88-.42-1.68-2.73-3.5-4.38-3.94-.99-.27-1.93-.1-2.86.22-.75.26-.92,1.26-1.83,1.28-.3,0-.6-.14-.8-.63-.13-.49-.03-.76-.04-1.02,0-.1.02-.7,0-.97-.08-.71.07-.7.01-1.46-.08-1-.46-2.35-.57-3.43-.09-.79.03-1.81-.03-2.53s-.59-1-.22-1.99c.26-.67.47-.69,1.1-.54h0c.5.1.62-.04,1.2,0,.79.07,1.53-.2,2.29-.21.98-.02,2.51.2,3.43.07.47-.07.89-.5,1.47-.27Z"/>
    <path class="cls-1" d="M167.34,296.17h0s-.51-.25-.53-.6c-.06-.92.18-1.33.18-1.33.06-.12,1.16-.41,1.27-.44.53-.13.73-.14,1.43-.02h0c1.58-.21,3.37.34,4.88-.32l-.57-6.44-.21-.23c-.35-.02-.69.21-1.02.24-2.75.23-4.31-.82-6.39-2.44-1.67-1.31-2.59-2.36-2.62-4.6-.04-3.36,2.04-5.51,4.97-6.83,2.6-1.17,4.47.01,6.53,1.43.35.24.67.7.96.89.43.28.74.59.55,1.43-.1.45-.42.8-.87.75-1.48-.14-.94-.98-2.05-1.8-.35-.26-1.82-1.04-2.22-1.07-1.53-.15-4.25,1.33-5.06,2.64-.08.14-.5,1.25-.54,1.45-.12.57-.07,1.32.07,1.88.42,1.68,2.73,3.5,4.38,3.94.99.27,1.93.1,2.86-.22.75-.26.92-1.26,1.83-1.28.3,0,.6.14.8.63.13.49.03.76.04,1.02,0,.1-.02.7,0,.97.08.71-.07.7-.01,1.46.08,1,.46,2.35.57,3.43.09.79-.03,1.81.03,2.53s.59,1,.22,1.99c-.26.67-.47.69-1.1.54h0c-.5-.1-.62.04-1.2,0-.79-.07-1.53.2-2.29.21-.98.02-2.51-.2-3.43-.07-.47.07-.89.5-1.47.27Z"/>
  </g>
  <image width="2500" height="1667" transform="translate(8.4 79.85) scale(.07)" xlink:href="../../Downloads/helle.webp"/>
</svg>