<?xml version="1.0" encoding="UTF-8"?>
<svg id="Layer_1" data-name="Layer 1" xmlns="http://www.w3.org/2000/svg" xmlns:xlink="http://www.w3.org/1999/xlink" viewBox="0 0 216.69 322.95">
  <defs>
    <style>
      .cls-1 {
        letter-spacing: 0em;
      }

      .cls-2 {
        fill: #fff;
      }

      .cls-3 {
        fill: #231f20;
        font-family: MyriadPro-Regular, 'Myriad Pro';
        font-size: 10.22px;
      }

      .cls-4 {
        letter-spacing: 0em;
      }

      .cls-5 {
        fill: #d2696f;
      }

      .cls-6 {
        letter-spacing: -.05em;
      }

      .cls-7 {
        letter-spacing: 0em;
      }

      .cls-8 {
        letter-spacing: 0em;
      }

      .cls-9 {
        letter-spacing: -.01em;
      }

      .cls-10 {
        letter-spacing: 0em;
      }

      .cls-11 {
        letter-spacing: .02em;
      }
    </style>
  </defs>
  <g>
    <g>
      <path class="cls-2" d="M191.2,197.98c.1-.42.14-.85.14-1.28v-75.08c.01-.86-.11-1.71-.36-2.53l-.83-2.73-5.8-65.51-.73-3.93c-3.67-26.07-25.75-36.61-50.29-34.37l-5.68.09-62.21,4.02-6.92,1.84c-17.22,1.48-29.38,2.79-33.69,21.87-2.59,11.43-1.38,20.61-1.5,31.5l-1.38,19.74-1.16,81.4.46,2.63,4.51,96.86,2.26,8.58c2.55,7,14.6,16.52,21.59,19.16,12.8,4.84,30.31,2.74,44.08,4.16l2.13-.05h69.42c3.15,0,8.77-.61,12.65-4.67l2.81-2.52c.24.29,3.53-2.8,4.34-3.58,12.48-12.19,5.84-46.26,4.98-62.43-.41-7.68,1.1-18.44.28-26.03-.14-1.32-.13-2.65.16-3.94l.74-3.21Z"/>
      <path class="cls-5" d="M188.4,297.08c-1.25,1.22-11.86,7.79-13.71,8.58-13.08,5.67-55.64,3.85-71.9,3.37-17.63-.52-49.14-.49-63.39-9.23-18.25-11.18-18.3-25.25-19.98-44.99-4.24-49.87-2.39-100.38-1.22-150.24.5-21.12-5.35-72.64,14.06-85.3,15.39-10.04,53.18-8.63,71.91-9.61,12.28-.64,24.5-3.22,36.87-2.59,14.1.72,27.19,3.53,36.29,14.67,10.8,13.23,12.81,29.17,14.09,45.78,4.76,61.47,2.91,116.98,3.71,178.46.2,15.2,5.89,38.8-6.73,51.11ZM191.22,197.5c.1-.42.14-.85.14-1.28v-75.08c.01-.86-.11-1.71-.36-2.53l-.83-2.73-5.8-65.51-.73-3.93c-3.67-26.07-25.75-36.61-50.29-34.37l-5.68.09-62.21,4.02-6.92,1.84c-17.22,1.48-29.38,2.79-33.69,21.87-2.59,11.43-1.38,20.61-1.5,31.5l-1.38,19.74-1.16,81.4.46,2.63,4.51,96.86,2.26,8.58c2.55,7,14.6,16.52,21.59,19.16,12.8,4.84,30.31,2.74,44.08,4.16l2.13-.05h69.42c3.15,0,8.77-.61,12.65-4.67l2.81-2.52c.24.29,3.53-2.8,4.34-3.58,12.48-12.19,5.84-46.26,4.98-62.43-.41-7.68,1.1-18.44.28-26.03-.14-1.32-.13-2.65.16-3.94l.74-3.21Z"/>
    </g>
    <path class="cls-5" d="M41.39,31.11c10.3-3.46,6.73,7.4,7.21,10.48.42,2.7,5.8,9.92-1.28,12.06-13.74,4.15-5.53-9.63-5.7-11.63s-5.58-9.1-.23-10.9ZM46.82,33.66c-4.08-5.54-9.09,8.48.12,5.59-.27-1.47.54-4.69-.12-5.59ZM47.89,51.02c8.37-8.31-11.94-10.08-6.1,1.06,1.54,1.08,4.89.14,6.1-1.06Z"/>
    <path class="cls-5" d="M173.52,261.92c.43.23.2,3.89,5.82,2,7.5-2.53-5.21-12.84-7.45-15.06-3.25,4.82-10.6,3.89-9.58,10.72,1.3,8.73,8.75,1.01,11.22,2.34Z"/>
    <path class="cls-5" d="M168.47,281.09c.17-2-8.04-15.78,5.7-11.63,7.08,2.14,1.7,9.36,1.28,12.06-.48,3.08,3.09,13.94-7.21,10.48-5.35-1.8.06-8.88.23-10.9ZM173.8,283.86c-9.21-2.89-4.21,11.13-.12,5.59.66-.9-.15-4.12.12-5.59ZM168.65,271.02c-5.84,11.14,14.47,9.37,6.1,1.06-1.21-1.2-4.56-2.13-6.1-1.06Z"/>
    <path class="cls-5" d="M45.99,62.01c.43-.23.2-3.89,5.82-2,7.5,2.53-5.21,12.84-7.45,15.06-3.25-4.82-10.6-3.89-9.58-10.72,1.3-8.73,8.75-1.01,11.22-2.34Z"/>
    <text class="cls-3" transform="translate(71.97 208.8)"><tspan x="0" y="0">HEN</tspan><tspan class="cls-10" x="18.42" y="0">N</tspan><tspan class="cls-1" x="25.08" y="0">Y SOLSKIN</tspan><tspan x="-28.77" y="24.54">Hun er en æg</tspan><tspan class="cls-7" x="28.59" y="24.54">t</tspan><tspan x="31.91" y="24.54">e solst</tspan><tspan class="cls-8" x="58.71" y="24.54">r</tspan><tspan x="62" y="24.54">åle med </tspan><tspan x="-43.88" y="36.81">hendes mange fa</tspan><tspan class="cls-11" x="29.75" y="36.81">r</tspan><tspan class="cls-9" x="33.35" y="36.81">v</tspan><tspan class="cls-4" x="38.16" y="36.81">e</tspan><tspan class="cls-6" x="43.28" y="36.81">r</tspan><tspan x="46.08" y="36.81">, dyr og bamse</tspan><tspan class="cls-6" x="108.4" y="36.81">r</tspan><tspan x="111.2" y="36.81">.</tspan></text>
  </g>
  <image width="2500" height="2194" transform="translate(46.54 72.81) scale(.05)" xlink:href="../henny.webp"/>
</svg>