<?xml version="1.0" encoding="UTF-8"?>
<svg id="Layer_1" data-name="Layer 1" xmlns="http://www.w3.org/2000/svg" viewBox="0 0 24.6 25.26">
  <defs>
    <style>
      .cls-1 {
        fill: #357cba;
        stroke: #357cba;
        stroke-miterlimit: 10;
        stroke-width: 2px;
      }

      .cls-2 {
        fill: #f9faf3;
      }
    </style>
  </defs>
  <path class="cls-1" d="M1.06,14.01l.59,7.71.3.68c.33.56,1.92,1.31,2.84,1.53,1.68.39,3.99.22,5.8.33h.28s9.13,0,9.13,0c.41,0,1.15-.05,1.66-.37l.37-.2s.46-.22.57-.29c1.64-.97.77-3.68.66-4.97-.05-.61.14-1.47.04-2.07-.02-.1-.02-.21.02-.31l.1-.26s.02-.07.02-.1v-5.98c0-.07-.02-.14-.05-.2l-.11-.22-.76-5.21-.1-.31c-.48-2.08-3.39-2.91-6.62-2.74h-.75s-8.18.33-8.18.33l-.91.15c-2.27.12-3.87.22-4.43,1.74-.34.91-.18,1.64-.2,2.51l-.18,1.57-.15,6.48.06.21"/>
  <path class="cls-2" d="M17.53,10.26c-.33-.35-1.66-1.73-2.12-1.78-1.77-1.35-2.81-1.22-5.11-.72-1.55.33-2.73,1.38-3.48,2.71-.7,1.23-1.22,2.66-1.17,4.09.1,2.67,2.12,3.59,4.46,4.79,1.14.58,3.02.3,4.35-.13,1.56-.5,2.02-.81,2.81-2.2.7-1.24,1.34-2.64,1.03-4.05,0,0-.21-2.13-.77-2.71ZM9.66,10.55c.12-.08,1.25-.58,1.53-.66.38-.11.89-.43,1.31-.27.78.29,2.17.84,2.78,1.41.26.85.93,1.46.8,2.26-.16.96.02,1.72-.58,2.57-.51.72-1.05.68-1.51,1.38-.19,0-.91.32-.98.32-.48,0-1.09.15-1.56.08-1.77-.27-1.92-.48-2.58-2.18-.38-.97-.89-2.09-.44-3.02.28-.58.62-1.48,1.25-1.88Z"/>
  <path class="cls-2" d="M18.38,3.96s.45-.21.55-.24c.14-.04.32-.15.47-.1.28.1.78.3,1,.5.09.3.33.52.29.81-.06.35,0,.62-.21.92-.18.26-.38.24-.54.49-.07,0-.33.11-.35.11-.17,0-.39.05-.56.03-.63-.1-.69-.17-.93-.78-.14-.35-.32-.75-.16-1.08.1-.21.22-.53.45-.68Z"/>
</svg>