<?xml version="1.0" encoding="UTF-8"?>
<svg id="Layer_1" data-name="Layer 1" xmlns="http://www.w3.org/2000/svg" xmlns:xlink="http://www.w3.org/1999/xlink" viewBox="0 0 216.69 322.95">
  <defs>
    <style>
      .cls-1, .cls-2 {
        fill: #357cba;
      }

      .cls-2 {
        stroke: #357cba;
        stroke-miterlimit: 10;
        stroke-width: .5px;
      }

      .cls-3 {
        fill: #fff;
      }

      .cls-4 {
        fill: #231f20;
        font-family: MyriadPro-Regular, 'Myriad Pro';
        font-size: 10.36px;
      }

      .cls-5 {
        letter-spacing: 0em;
      }

      .cls-6 {
        letter-spacing: 0em;
      }

      .cls-7 {
        letter-spacing: 0em;
      }

      .cls-8 {
        letter-spacing: 0em;
      }
    </style>
  </defs>
  <g>
    <g>
      <path class="cls-3" d="M189.35,200.78c.1-.43.15-.86.15-1.3v-76.1c.01-.87-.12-1.73-.37-2.56l-.84-2.77-5.88-66.39-.74-3.99c-3.71-26.42-26.1-37.11-50.97-34.83l-5.75.1-63.05,4.08-7.01,1.87c-17.45,1.5-29.77,2.83-34.15,22.17-2.62,11.59-1.4,20.89-1.52,31.92l-1.4,20.01-1.17,82.5.47,2.67,4.57,98.16,2.29,8.69c2.58,7.09,14.79,16.74,21.88,19.42,12.98,4.91,30.72,2.78,44.67,4.22l2.16-.05h70.36c3.2,0,8.88-.61,12.83-4.73l2.85-2.55c.24.3,3.58-2.83,4.4-3.63,12.65-12.35,5.92-46.88,5.05-63.27-.41-7.78,1.11-18.69.28-26.38-.14-1.34-.14-2.68.16-3.99l.75-3.26Z"/>
      <path class="cls-1" d="M186.5,301.22c-1.27,1.24-12.02,7.89-13.89,8.7-13.25,5.74-56.39,3.9-72.87,3.41-17.87-.53-49.81-.5-64.25-9.35-18.49-11.34-18.55-25.59-20.25-45.59-4.29-50.54-2.43-101.74-1.24-152.27.5-21.4-5.42-73.62,14.25-86.45,15.6-10.18,53.89-8.75,72.88-9.74,12.44-.65,24.83-3.26,37.37-2.62,14.29.73,27.56,3.57,36.78,14.86,10.95,13.41,12.98,29.56,14.28,46.4,4.83,62.3,2.95,118.56,3.76,180.87.2,15.41,5.97,39.32-6.83,51.8ZM189.36,200.29c.1-.43.15-.86.15-1.3v-76.1c.01-.87-.12-1.73-.37-2.56l-.84-2.77-5.88-66.39-.74-3.99c-3.71-26.42-26.1-37.11-50.97-34.83l-5.75.1-63.05,4.08-7.01,1.87c-17.45,1.5-29.77,2.83-34.15,22.17-2.62,11.59-1.4,20.89-1.52,31.92l-1.4,20.01-1.17,82.5.47,2.67,4.57,98.16,2.29,8.69c2.58,7.09,14.79,16.74,21.88,19.42,12.98,4.91,30.72,2.78,44.67,4.22l2.16-.05h70.36c3.2,0,8.88-.61,12.83-4.73l2.85-2.55c.24.3,3.58-2.83,4.4-3.63,12.65-12.35,5.92-46.88,5.05-63.27-.41-7.78,1.11-18.69.28-26.38-.14-1.34-.14-2.68.16-3.99l.75-3.26Z"/>
    </g>
    <text class="cls-4" transform="translate(81.41 212.94)"><tspan x="0" y="0">LASSE NK</tspan><tspan x="-41.51" y="24.87">Han er en mes</tspan><tspan class="cls-5" x="20.05" y="24.87">t</tspan><tspan x="23.41" y="24.87">er til balloner </tspan><tspan x="-37.37" y="37.3">og har en populær </tspan><tspan class="cls-8" x="45.01" y="37.3">S</tspan><tspan x="50.18" y="37.3">eg</tspan><tspan class="cls-6" x="61.17" y="37.3">w</tspan><tspan class="cls-7" x="68.75" y="37.3">a</tspan><tspan x="73.66" y="37.3">y</tspan></text>
    <g>
      <path class="cls-1" d="M169,256.86c.44-.24.2-3.94,5.89-2.02,7.6,2.56-5.28,13.02-7.55,15.26-3.29-4.89-10.74-3.95-9.71-10.86,1.32-8.85,8.87-1.02,11.37-2.37Z"/>
      <path class="cls-1" d="M164.36,258.57c.25-2.15-.88-5.43-2.4-6.7-.51-.42-2.27.07-2.06-2,1.74-1.33,3.54-.38,5.57-.54,1.22-.09,7.87-1.61,7.99.25,0,.07-.4,1.03-.53,1.22-1.13,1.74-3.66,2.74-3.16,6.22"/>
      <path class="cls-1" d="M166.23,261.43c1.75-2.97,1.08-7.26,2.77-10.47h-4.67c.62,1.99,1.49,3.28,1.49,5.78"/>
    </g>
    <g>
      <path class="cls-1" d="M43.1,71.83c.44.24.2,3.94,5.89,2.02,7.6-2.56-5.28-13.02-7.55-15.26-3.29,4.89-10.74,3.95-9.71,10.86,1.32,8.85,8.87,1.02,11.37,2.37Z"/>
      <path class="cls-1" d="M43.86,71.66c-.51,3.49,2.03,4.48,3.16,6.22.13.19.53,1.15.53,1.22-.12,1.86-6.76.35-7.99.25-2.02-.16-3.83.79-5.57-.54-.21-2.07,1.55-1.58,2.06-2,1.52-1.27,2.65-4.56,2.4-6.7"/>
      <path class="cls-1" d="M39.91,71.93c0,2.51-.87,3.79-1.49,5.78h4.67c-1.69-3.2-1.02-7.5-2.77-10.47"/>
    </g>
    <path class="cls-2" d="M44.82,34.67c-.13.09-.71.06-.92.31-.25.29-.55,1.08-.77,1.38-1.49,2.02-2.49,3.48-3.51,5.82-.09.21-.34.38-.39.59-.12.44.02,1.04-.03,1.5.47.14.9-.32,1.17-.37,2.36-.44,5.13-.09,7.08,1.35.8.59,1.8,3.36,1.89,4.38.02.18.04.9.02,1.05-.05.47-.66,1.12-1.02,1.45-.28.27-2.8,2.13-2.98,2.18-1.58.48-3.24.58-4.86.27-.11-.02-.13.03-.45-.1h0l-.49-.19c-.23-.06-.36-.14-.59-.24-.03-.01-.41-.32-.51-.4-1.4-1.07-2.19-2.67-2.34-4.41-.1-1.2-.17-2.7.15-3.9s1.78-5.05,2.44-6.03,1.1-1.86,1.74-2.86c.72-1.12,1.55-2.26,2.36-3.35s2.23-.92,2.24.55c0,.15-.17.97-.25,1.02ZM44.27,52.6c.18-.06.36-.13.52-.23.43-.28,2.26-1.63,2.47-2.01.47-.85.07-2.51-.63-3.15-.12-.11-.36-.12-.49-.25-.55-.55-.4-.82-1.42-1.16-1.16-.38-3.02-.34-4.21-.07-.09.02-.47.07-.56.1-.52.21-.59.19-1.25.71-.16.13,0,0-.48.46-.2.19-.26.45-.29.77-.09,1.11-.11.69.06,1.66.18,1.03,1.3,2.84,2.42,2.92h0l.16.07c.05.26,2.61.59,3.21.27"/>
    <path class="cls-2" d="M166.12,292.58c.13-.09.71-.06.92-.31.25-.29.55-1.08.77-1.38,1.49-2.02,2.49-3.48,3.51-5.82.09-.21.34-.38.39-.59.12-.44-.02-1.04.03-1.5-.47-.14-.9.32-1.17.37-2.36.44-5.13.09-7.08-1.35-.8-.59-1.8-3.36-1.89-4.38-.02-.18-.04-.9-.02-1.05.05-.47.66-1.12,1.02-1.45.28-.27,2.8-2.13,2.98-2.18,1.58-.48,3.24-.58,4.86-.27.11.02.13-.03.45.1h0l.49.19c.23.06.36.14.59.24.03.01.41.32.51.4,1.4,1.07,2.19,2.67,2.34,4.41.1,1.2.17,2.7-.15,3.9s-1.78,5.05-2.44,6.03-1.1,1.86-1.74,2.86c-.72,1.12-1.55,2.26-2.36,3.35s-2.23.92-2.24-.55c0-.15.17-.97.25-1.02ZM166.68,274.65c-.18.06-.36.13-.52.23-.43.28-2.26,1.63-2.47,2.01-.47.85-.07,2.51.63,3.15.12.11.36.12.49.25.55.55.4.82,1.42,1.16,1.16.38,3.02.34,4.21.07.09-.02.47-.07.56-.1.52-.21.59-.19,1.25-.71.16-.13,0,0,.48-.46.2-.19.26-.45.29-.77.09-1.11.11-.69-.06-1.66-.18-1.03-1.3-2.84-2.42-2.92h0l-.16-.07c-.05-.26-2.61-.59-3.21-.27"/>
  </g>
  <image width="800" height="873" transform="translate(26.69 62.46) scale(.19)" xlink:href="../../Downloads/lasse.webp"/>
</svg>