<?xml version="1.0" encoding="UTF-8"?>
<svg id="Layer_1" data-name="Layer 1" xmlns="http://www.w3.org/2000/svg" viewBox="0 0 23.78 24.57">
  <defs>
    <style>
      .cls-1 {
        fill: #357cba;
        stroke: #357cba;
        stroke-miterlimit: 10;
        stroke-width: 2px;
      }

      .cls-2 {
        fill: #f9faf3;
      }
    </style>
  </defs>
  <path class="cls-1" d="M1.06,13.62l.57,7.48.29.66c.32.54,1.85,1.28,2.74,1.48,1.62.37,3.84.21,5.59.32h.27s8.8,0,8.8,0c.4,0,1.11-.05,1.6-.36l.36-.19s.45-.22.55-.28c1.58-.94.74-3.57.63-4.82-.05-.59.14-1.42.04-2.01-.02-.1-.02-.2.02-.3l.09-.25s.02-.07.02-.1v-5.8c0-.07-.01-.13-.05-.2l-.11-.21-.74-5.06-.09-.3c-.46-2.01-3.27-2.83-6.38-2.66h-.72s-7.89.32-7.89.32l-.88.14c-2.18.11-3.73.22-4.27,1.69-.33.88-.18,1.59-.19,2.43l-.18,1.53-.15,6.29.06.2"/>
  <path class="cls-2" d="M5.13,5.13s.52-.24.64-.28c.16-.04.37-.18.55-.11.33.12.91.35,1.17.59.11.36.39.61.33.95-.07.4,0,.72-.24,1.08-.21.3-.44.28-.63.58-.08,0-.38.13-.41.13-.2,0-.46.06-.66.03-.74-.11-.8-.2-1.08-.92-.16-.41-.37-.88-.18-1.27.12-.24.26-.62.52-.79Z"/>
  <path class="cls-2" d="M7.83,19.02c0-1.03.01-1.28,0-2.12-.01-.91-.03-3.43,0-4.34.06-1.92-.07-1.54,0-3.46.02-.57-3.4-.32-3.3.64.21,1.94.09,6.14.09,6.14-.03.97-.14,1.97-.06,2.93.07.8-.3,1.75.43,2.15.56.32,2.08-.06,2.65-.28.16-.06.19-1.08.19-1.67Z"/>
  <path class="cls-2" d="M19.15,10.03c-1.15-1.72-3.64-.88-5.04.04-.3.2-.59.42-.88.65-.02-.35-.03-.75,0-1.62.02-.57-3.4-.32-3.3.64.21,1.94.09,6.14.09,6.14-.03.97-.14,1.97-.06,2.93.07.8-.3,1.75.43,2.15.56.32,2.08-.06,2.65-.28.16-.06.19-1.08.19-1.67,0-1.03.01-1.28,0-2.12,0-.52-.01-1.94-.01-2.54,0-.43.3-1.15.47-1.49.26-.49.64-.39,1.38-.74.08-.04.75-.08.83.09.34.15,1.11.94,1.15,1.02.14.24.38,1.98.39,2.26.09,3-.1,2.09-.1,5.04,0,.47,2.96.98,3.21-.17.69-3.16.47-7.56-1.39-10.34Z"/>
</svg>