<?xml version="1.0" encoding="UTF-8"?>
<svg id="Layer_1" data-name="Layer 1" xmlns="http://www.w3.org/2000/svg" xmlns:xlink="http://www.w3.org/1999/xlink" viewBox="0 0 216.69 322.95">
  <defs>
    <style>
      .cls-1 {
        stroke: #d2696f;
        stroke-miterlimit: 10;
        stroke-width: .5px;
      }

      .cls-1, .cls-2 {
        fill: #d2696f;
      }

      .cls-3 {
        fill: #fff;
      }

      .cls-4 {
        fill: #231f20;
        font-family: MyriadPro-Regular, 'Myriad Pro';
        font-size: 10.28px;
      }

      .cls-5 {
        letter-spacing: -.05em;
      }

      .cls-6 {
        letter-spacing: -.01em;
      }

      .cls-7 {
        letter-spacing: 0em;
      }

      .cls-8 {
        letter-spacing: 0em;
      }

      .cls-9 {
        letter-spacing: -.01em;
      }

      .cls-10 {
        letter-spacing: 0em;
      }

      .cls-11 {
        letter-spacing: 0em;
      }

      .cls-12 {
        letter-spacing: 0em;
      }
    </style>
  </defs>
  <g>
    <path class="cls-3" d="M191.86,198.47c.1-.42.15-.85.15-1.29v-75.52c.01-.86-.11-1.72-.37-2.54l-.84-2.75-5.84-65.88-.73-3.96c-3.69-26.22-25.9-36.83-50.58-34.56l-5.71.09-62.57,4.05-6.96,1.85c-17.32,1.49-29.55,2.81-33.89,22-2.6,11.5-1.39,20.73-1.51,31.68l-1.39,19.86-1.16,81.87.47,2.65,4.53,97.41,2.27,8.63c2.56,7.04,14.68,16.61,21.72,19.27,12.88,4.87,30.49,2.76,44.33,4.18l2.14-.05h69.82c3.17,0,8.82-.61,12.73-4.69l2.83-2.53c.24.29,3.55-2.81,4.36-3.61,12.55-12.26,5.88-46.52,5.01-62.79-.41-7.72,1.11-18.55.28-26.18-.14-1.33-.13-2.66.16-3.96l.74-3.23Z"/>
    <path class="cls-2" d="M189.04,298.14c-1.26,1.23-11.93,7.83-13.79,8.63-13.15,5.7-55.96,3.87-72.31,3.39-17.73-.52-49.43-.49-63.76-9.28-18.35-11.25-18.41-25.4-20.1-45.25-4.26-50.16-2.41-100.96-1.23-151.11.5-21.24-5.38-73.06,14.14-85.79,15.48-10.1,53.48-8.68,72.33-9.67,12.35-.64,24.64-3.24,37.09-2.6,14.18.72,27.35,3.55,36.5,14.75,10.86,13.31,12.88,29.34,14.17,46.04,4.79,61.82,2.92,117.66,3.73,179.49.2,15.29,5.92,39.02-6.77,51.4ZM191.88,197.98c.1-.42.15-.85.15-1.29v-75.52c.01-.86-.11-1.72-.37-2.54l-.84-2.75-5.84-65.88-.73-3.96c-3.69-26.22-25.9-36.83-50.58-34.56l-5.71.09-62.57,4.05-6.96,1.85c-17.32,1.49-29.55,2.81-33.89,22-2.6,11.5-1.39,20.73-1.51,31.68l-1.39,19.86-1.16,81.87.47,2.65,4.53,97.41,2.27,8.63c2.56,7.04,14.68,16.61,21.72,19.27,12.88,4.87,30.49,2.76,44.33,4.18l2.14-.05h69.82c3.17,0,8.82-.61,12.73-4.69l2.83-2.53c.24.29,3.55-2.81,4.36-3.61,12.55-12.26,5.88-46.52,5.01-62.79-.41-7.72,1.11-18.55.28-26.18-.14-1.33-.13-2.66.16-3.96l.74-3.23Z"/>
  </g>
  <path class="cls-2" d="M174.08,262.78c.43.23.2,3.91,5.85,2.01,7.54-2.54-5.24-12.92-7.49-15.14-3.26,4.85-10.66,3.91-9.63,10.78,1.31,8.79,8.8,1.01,11.28,2.35Z"/>
  <path class="cls-2" d="M45.81,61.72c.43-.23.2-3.91,5.85-2.01,7.54,2.54-5.24,12.92-7.49,15.14-3.26-4.85-10.66-3.91-9.63-10.78,1.31-8.79,8.8-1.01,11.28-2.35Z"/>
  <text class="cls-4" transform="translate(72.12 208.34)"><tspan x="0" y="0">T</tspan><tspan class="cls-9" x="5.11" y="0">R</tspan><tspan class="cls-11" x="10.53" y="0">Y</tspan><tspan x="16.02" y="0">LLE MICHAEL</tspan><tspan x="-1.74" y="24.68">En æg</tspan><tspan class="cls-7" x="24.91" y="24.68">t</tspan><tspan x="28.25" y="24.68">e ma</tspan><tspan class="cls-7" x="49.11" y="24.68">g</tspan><tspan x="54.8" y="24.68">ike</tspan><tspan class="cls-5" x="67.18" y="24.68">r</tspan><tspan x="70" y="24.68">, </tspan><tspan x="-43.71" y="37.02">der også får de </tspan><tspan class="cls-10" x="22.01" y="37.02">v</tspan><tspan x="26.86" y="37.02">oksne til </tspan><tspan class="cls-8" x="64.85" y="37.02">a</tspan><tspan x="69.77" y="37.02">t </tspan><tspan class="cls-6" x="75.35" y="37.02">f</tspan><tspan x="78.22" y="37.02">o</tspan><tspan class="cls-12" x="83.87" y="37.02">r</tspan><tspan x="87.27" y="37.02">blø</tspan><tspan class="cls-6" x="101.19" y="37.02">ff</tspan><tspan x="107.06" y="37.02">es</tspan></text>
  <path class="cls-1" d="M40.68,40.71c.05.03.42.2.71.29.46.13,1.78-.06,2.24-.18.19-.05.42.02.71-.2l.76-.45c.29-.42-.05-2.22-.08-2.79-.03-.64.06-1.33,0-1.95-.09-.92-.92-2.68-.37-3.38.5-.64,1.1-.17,1.7.02.17-.01.5,1.55.59,2.34.07.62-.15,1.72-.1,2.35.06.72.11,1.4.15,2.12.18,3.19.03,5.1.28,8.3.1,1.24.52,2.88.3,4.61-.1.74-.95,1.19-1.55.75-.26-.19-.46-.47-.56-.81-.13-.45-.02-.9-.14-1.37-.6-2.52.52-4.94,0-7.49-.49-.22-.94.19-1.29.25-.65.1-2.51.17-3.09.03-.04-.01-.52-.25-.73-.34-.46-.2-2.28-1.25-2.53-1.57-.16-.2-.89-1.84-.97-2.14-.66-2.3-.68-4.33-.67-6.72,0-.58-.38-.88.22-1.43.06-.05.19-.14.34-.22.55-.31,1.3-.1,1.5.5.27.79.16.48.17,1.3,0,.28-.13.91-.12,1.24.04,2.26-.28,5.37,1.96,6.6.27.15.5.28.61.34Z"/>
  <path class="cls-1" d="M173.56,283.19c-.05-.03-.42-.2-.71-.29-.46-.13-1.78.06-2.24.18-.19.05-.42-.02-.71.2l-.76.45c-.29.42.05,2.22.08,2.79.03.64-.06,1.33,0,1.95.09.92.92,2.68.37,3.38-.5.64-1.1.17-1.7-.02-.17.01-.5-1.55-.59-2.34-.07-.62.15-1.72.1-2.35-.06-.72-.11-1.4-.15-2.12-.18-3.19-.03-5.1-.28-8.3-.1-1.24-.52-2.88-.3-4.61.1-.74.95-1.19,1.55-.75.26.19.46.47.56.81.13.45.02.9.14,1.37.6,2.52-.52,4.94,0,7.49.49.22.94-.19,1.29-.25.65-.1,2.51-.17,3.09-.03.04.01.52.25.73.34.46.2,2.28,1.25,2.53,1.57.16.2.89,1.84.97,2.14.66,2.3.68,4.33.67,6.72,0,.58.38.88-.22,1.43-.06.05-.19.14-.34.22-.55.31-1.3.1-1.5-.5-.27-.79-.16-.48-.17-1.3,0-.28.13-.91.12-1.24-.04-2.26.28-5.37-1.96-6.6-.27-.15-.5-.28-.61-.34Z"/>
  <image width="700" height="600" transform="translate(32.91 66.49) scale(.21)" xlink:href="../../Downloads/michael.webp"/>
</svg>